<?xml version="1.0" encoding="utf-8"?><svg xmlns="http://www.w3.org/2000/svg" xmlns:xlink="http://www.w3.org/1999/xlink"><symbol viewBox="0 0 58 73" id="map--map" xmlns="http://www.w3.org/2000/svg"><path d="M29 0C18.913 0 0 7.684 0 29.456S29 73 29 73s29-21.772 29-43.544S39.087 0 29 0z"/><g clip-path="url(#aclip0_2_1171)"><path d="M29 33.81c2.518 0 4.579-2.074 4.579-4.61 0-2.536-2.06-4.61-4.579-4.61-2.518 0-4.579 2.074-4.579 4.61 0 2.536 2.06 4.61 4.579 4.61zm0-19.979a15.39 15.39 0 00-4.579.692v8.53c3.358-2.536 8.166-1.845 10.684 1.536 2.519 3.382 1.832 8.223-1.526 10.758-3.358 2.536-8.166 1.844-10.684-1.537a7.598 7.598 0 01-1.527-4.61V15.906c-7.326 4.227-9.768 13.601-5.57 20.978 4.197 7.377 13.507 9.836 20.834 5.61 7.326-4.227 9.768-13.601 5.57-20.978-2.67-4.764-7.707-7.684-13.202-7.684z"/></g><defs><clipPath id="aclip0_2_1171"><path transform="translate(13.737 13.832)" d="M0 0h30.526v30.737H0z"/></clipPath></defs></symbol><symbol viewBox="0 0 0 0" id="sprite--sprite-icons" xmlns="http://www.w3.org/2000/svg"/><symbol viewBox="0 0 1600 1600" id="video-icons--pause" xmlns="http://www.w3.org/2000/svg"><path d="M411.2 304.5c-21.5 4.7-39.9 22.6-45.7 44.5-1.3 4.8-1.5 61.9-1.5 438.5 0 382.8.2 433.8 1.5 439 5.3 20.9 21.6 37.6 43 44.2 5.7 1.7 11.8 1.8 106.5 1.8h100.5l7.5-2.3c9.7-3.1 16.7-7.1 24-13.9 7.7-7.1 12.7-14.8 16.4-25.3l3.1-8.5.3-430c.2-295.8-.1-432.1-.8-436.8-3.6-23.6-19.3-42.3-42-50l-6.5-2.2-100-.2c-81.6-.1-101.2.1-106.3 1.2zm548.8-.8c-18.3 3.1-35.9 16.2-44 32.5-7.6 15.5-7-25.8-7 451.8 0 474.3-.5 436.5 6.4 450.5 6.3 12.6 15.8 22 28.3 28.1 13.6 6.6 12.1 6.5 120.9 6.2l97.9-.3 6.5-2.2c15.6-5.4 28.6-16.3 35.8-30.1 7.9-15 7.2 28.6 7.2-452.2 0-478 .6-437.1-6.6-451.6-6.6-13.4-19.5-24.7-34.4-30.2l-7.5-2.7-100.5-.1c-55.3-.1-101.6 0-103 .3z"/></symbol><symbol viewBox="0 0 49.24 74.25" id="video-icons--play" xmlns="http://www.w3.org/2000/svg"><path d="M46.877 39.77L9.257 69.741c-3.597 2.852-8.888.29-8.888-4.3V5.497C.369.91 5.66-1.655 9.257 1.198l37.62 29.972c2.729 2.191 2.729 6.408 0 8.6z"/></symbol><symbol viewBox="0 0 12.83 16.7" id="video-icons--volume" xmlns="http://www.w3.org/2000/svg"><path d="M11.188 1.174L5.016 6.082a3.132 3.132 0 00-1.497-.372A3.158 3.158 0 00.36 8.87a3.158 3.158 0 003.16 3.161c.54 0 1.05-.139 1.497-.371l6.172 4.917c.809.642 1.999.065 1.999-.967V2.131c0-1.032-1.19-1.608-1.999-.957z"/></symbol></svg>