<?xml version="1.0" standalone="no"?>
<!DOCTYPE svg PUBLIC "-//W3C//DTD SVG 20010904//EN"
 "http://www.w3.org/TR/2001/REC-SVG-20010904/DTD/svg10.dtd">
<svg version="1.0" xmlns="http://www.w3.org/2000/svg"
 width="1600.000000pt" height="1600.000000pt" viewBox="0 0 1600.000000 1600.000000"
 preserveAspectRatio="xMidYMid meet">

<g transform="translate(0.000000,1600.000000) scale(0.100000,-0.100000)"
fill="#ffffff" stroke="none">
<path d="M4112 12955 c-215 -47 -399 -226 -457 -445 -13 -48 -15 -619 -15
-4385 0 -3828 2 -4338 15 -4390 53 -209 216 -376 430 -442 57 -17 118 -18
1065 -18 l1005 0 75 23 c97 31 167 71 240 139 77 71 127 148 164 253 l31 85 3
4300 c2 2958 -1 4321 -8 4368 -36 236 -193 423 -420 500 l-65 22 -1000 2
c-816 1 -1012 -1 -1063 -12z"/>
<path d="M9600 12963 c-183 -31 -359 -162 -440 -325 -76 -155 -70 258 -70
-4518 0 -4743 -5 -4365 64 -4505 63 -126 158 -220 283 -281 136 -66 121 -65
1209 -62 l979 3 65 22 c156 54 286 163 358 301 79 150 72 -286 72 4522 0 4780
6 4371 -66 4516 -66 134 -195 247 -344 302 l-75 27 -1005 1 c-553 1 -1016 0
-1030 -3z"/>
</g>
</svg>
 